Coordinates
version=1
nRows=13
nColumns=36
inDegrees=yes

Units are S.I. units (second, meters, Newtons, ...)
If the header above contains a line with 'inDegrees', this indicates whether rotational values are in degrees (yes) or radians (no).

endheader
time	pelvis_tilt	pelvis_list	pelvis_rotation	pelvis_tx	pelvis_ty	pelvis_tz	hip_flexion_r	hip_adduction_r	hip_rotation_r	knee_angle_r	knee_angle_r_beta	ankle_angle_r	subtalar_angle_r	mtp_angle_r	hip_flexion_l	hip_adduction_l	hip_rotation_l	knee_angle_l	knee_angle_l_beta	ankle_angle_l	subtalar_angle_l	mtp_angle_l	lumbar_extension	lumbar_bending	lumbar_rotation	arm_flex_r	arm_add_r	arm_rot_r	elbow_flex_r	pro_sup_r	arm_flex_l	arm_add_l	arm_rot_l	elbow_flex_l	pro_sup_l
      2.16666670	      1.91364914	      1.52214727	    -13.02844015	      0.41456113	      1.05305242	     -0.05575271	     -9.92010685	     -0.22197544	      5.31230554	      0.74454260	      0.01299472	      6.54946552	      3.27968948	     -7.49999987	     -2.81434812	      5.33966812	     -2.25026303	      2.65914300	      0.04641080	     -1.93177126	     -5.77746655	     -7.49999987	    -18.31090308	     -3.12588736	      1.63093221	     32.96147118	    -32.52932695	    129.43359000	    119.01494766	     99.42599114	     35.25741327	     -6.58847940	     26.46886371	     75.64836475	     92.21703268
      2.18333330	      1.41934799	      1.53105510	    -13.20874784	      0.41402196	      1.05148725	     -0.05586668	     -9.38165126	     -0.15630561	      5.57465858	      0.64344738	      0.01123028	      6.44154797	      3.23336774	     -7.49999987	     -2.38197924	      5.18108467	     -2.25940208	      2.58087039	      0.04504469	     -1.91231055	     -5.99553002	     -7.49999987	    -17.36958385	     -3.14858288	      1.68328024	     32.76040798	    -32.61033392	    128.59842708	    119.00837091	    104.39722092	     34.87129967	     -6.69871566	     25.94639973	     75.05405534	     97.77665381
      2.20000000	      1.09414815	      1.51946222	    -13.63114533	      0.41435711	      1.04997501	     -0.05565973	     -9.00734138	     -0.15767072	      5.91526703	      0.57617691	      0.01005618	      6.36780327	      3.30689618	     -7.49999987	     -2.13831424	      5.05241928	     -2.50254310	      2.51983414	      0.04397940	     -1.80711255	     -5.98587623	     -7.49999987	    -16.56675988	     -3.21959075	      1.89605883	     32.02470232	    -32.85514291	    127.49072398	    118.88731121	    100.62222418	     34.26354419	     -6.80375789	     25.32530706	     74.74049881	     98.73946948
      2.21666670	      0.80261201	      1.48118618	    -13.86401044	      0.41386603	      1.04872864	     -0.05567741	     -8.67475137	     -0.10693754	      6.08791478	      0.52312541	      0.00913026	      6.24454141	      3.43432835	     -7.49999987	     -1.97371234	      4.89272917	     -2.71615328	      2.36145106	      0.04121510	     -1.59739860	     -5.69641074	     -7.49999987	    -15.86469508	     -3.28612474	      2.16602702	     30.69833128	    -33.25506820	    125.56383228	    118.86161048	    102.49920633	     34.17960029	     -6.67443381	     25.15698058	     74.36835765	     97.19404895
      2.23333330	      0.50182769	      1.50096911	    -14.13403416	      0.41435132	      1.04756349	     -0.05543337	     -8.31156666	     -0.13263603	      6.29661653	      0.48203626	      0.00841312	      6.18071760	      3.63411376	     -7.49999987	     -1.75822464	      4.82550334	     -2.89931522	      2.16849560	      0.03784739	     -1.51446585	     -5.64159019	     -7.49999987	    -15.10536919	     -3.32949975	      2.21725630	     30.27942909	    -33.16571769	    125.21806365	    118.77873483	    102.39134315	     33.64126035	     -7.02679257	     24.95989268	     74.16655520	     97.14217076
      2.25000000	      0.25372593	      1.50679867	    -14.33318386	      0.41392173	      1.04659572	     -0.05541385	     -8.00969736	     -0.14154413	      6.47729183	      0.45502052	      0.00794161	      6.19598427	      3.77471708	     -7.49999987	     -1.57280142	      4.74086657	     -3.04040583	      2.06845614	      0.03610137	     -1.42488036	     -5.52215281	     -7.49999987	    -14.51676069	     -3.51588766	      2.61076260	     28.25641848	    -33.52466454	    123.33221050	    118.35945146	     98.52269187	     33.56660398	     -6.95694726	     25.18594552	     73.88374910	     97.42469633
      2.26666670	      0.02433589	      1.52790457	    -14.56509279	      0.41428676	      1.04958954	     -0.05513193	     -7.73071055	     -0.17522970	      6.64775467	      0.41688999	      0.00727610	      6.25983587	      3.98960826	     -7.49999987	     -1.42564675	      4.67560166	     -3.18713398	      1.91465445	      0.03341702	     -1.43477442	     -5.38839137	     -7.49999987	    -13.86649766	     -3.65462096	      2.33379642	     27.78642032	    -33.57698107	    122.37243230	    116.60964412	     98.39206691	     32.69804209	     -7.36821931	     24.55760851	     73.89339243	     97.23630717
      2.28333330	     -0.27783219	      1.57142811	    -14.81215090	      0.41382647	      1.04853365	     -0.05501560	     -7.34308026	     -0.21217878	      6.85680197	      0.38937622	      0.00679590	      6.32150991	      4.05649148	     -7.49999987	     -1.14710530	      4.63462853	     -3.34206190	      1.81572018	      0.03169030	     -1.35188903	     -5.20849158	     -7.49999987	    -13.33337543	     -3.83827056	      2.99283050	     25.36797242	    -34.78630336	    118.71222277	    115.34281746	     94.78087136	     32.39665504	     -7.25423428	     24.62559170	     73.76520153	     95.77532518
      2.30000000	     -0.53926040	      1.59527798	    -14.95778186	      0.41443392	      1.05149453	     -0.05480806	     -7.04977190	     -0.21759618	      6.92639177	      0.35755339	      0.00624048	      6.37661857	      4.30431816	     -7.49999987	     -0.93770275	      4.57898387	     -3.48399840	      1.69050956	      0.02950496	     -1.43258905	     -5.14902483	     -7.49999987	    -12.84706962	     -3.96400612	      3.06821810	     24.29556521	    -35.21587484	    116.79510666	    113.67641304	     91.88080761	     31.68539819	     -7.29772211	     24.01557755	     73.80494761	     95.26411029
      2.31666670	     -0.76682059	      1.62736936	    -15.13493983	      0.41397597	      1.05037523	     -0.05476001	     -6.75987420	     -0.24712444	      7.13505273	      0.33287797	      0.00580982	      6.43785117	      4.38297016	     -7.49999987	     -0.73878383	      4.54276813	     -3.62314901	      1.59531376	      0.02784348	     -1.49567773	     -5.13191689	     -7.49999987	    -12.40587551	     -4.02402821	      3.02633020	     24.10694512	    -35.24953327	    116.36099762	    112.81252630	     89.46304657	     31.33417003	     -7.50317824	     23.75711296	     73.97535606	     93.15803208
      2.33333330	     -1.06549996	      1.68326109	    -15.20848900	      0.41449942	      1.04908438	     -0.05461456	     -6.41468870	     -0.26494978	      7.24076006	      0.31650405	      0.00552404	      6.44336903	      4.47572750	     -7.49999987	     -0.45092542	      4.50625606	     -3.86830185	      1.55148815	      0.02707858	     -1.62770154	     -5.10427126	     -7.49999987	    -11.85453407	     -4.14244649	      2.91855252	     23.68857948	    -35.02505046	    116.47482167	    112.10568966	     88.40693248	     31.43351100	     -7.48859187	     23.60425417	     74.07647091	     92.15787184
      2.35000000	     -1.20123295	      1.69545006	    -15.36472785	      0.41404314	      1.04811809	     -0.05453523	     -6.21608265	     -0.28939204	      7.34834797	      0.29588207	      0.00516412	      6.47403105	      4.67587153	     -7.49999987	     -0.31766103	      4.48197704	     -3.92584441	      1.49075889	      0.02601865	     -1.58668387	     -5.09879080	     -7.49999987	    -11.61604805	     -4.21099072	      2.99921273	     23.46210659	    -34.81763024	    116.92543137	    112.21497835	     86.51967025	     31.72642703	     -7.35818485	     23.71248140	     73.97595682	     90.62496923
      2.36666670	     -1.50794609	      1.73174954	    -15.44884398	      0.41435100	      1.04271484	     -0.05458608	     -5.84526814	     -0.27336955	      7.41849323	      0.28536498	      0.00498056	      6.49646601	      4.79084849	     -7.49999987	      0.02536743	      4.42396663	     -4.03901092	      1.48024871	      0.02583521	     -1.61439913	     -5.08017577	     -7.49999987	    -11.05189583	     -4.23747122	      3.00309948	     22.86626063	    -34.77220331	    116.71633769	    112.86606423	     87.63913566	     31.83879917	     -7.16166598	     23.27356532	     73.90382304	     95.83963419
